<?xml version="1.0" standalone="no"?>
<!DOCTYPE svg PUBLIC "-//W3C//DTD SVG 1.1//EN" "http://www.w3.org/Graphics/SVG/1.1/DTD/svg11.dtd" >
<svg xmlns="http://www.w3.org/2000/svg">
<metadata>
This is a custom SVG webfont generated by Font Squirrel.
Copyright   : Copyright c 2009 by Roman Shamin  Jovanny Lemonad All rights reserved
Designer    : Roman Shamin
Foundry     : Roman Shamin  Jovanny Lemonad
Foundry URL : httpwwwjovannyru
</metadata>
<defs>
<font id="webfontHJWRTQ48" horiz-adv-x="333" >
<font-face units-per-em="2048" ascent="1536" descent="-512" />
<missing-glyph horiz-adv-x="512" />
<glyph unicode=" "  horiz-adv-x="512" />
<glyph unicode="&#x09;" horiz-adv-x="512" />
<glyph unicode="&#xa0;" horiz-adv-x="512" />
<glyph unicode="!" horiz-adv-x="413" d="M311 74q0 -41 -30.5 -71t-73.5 -30t-74 30t-31 71t31 70.5t74 29.5t73.5 -29.5t30.5 -70.5zM279 1434v-476l-21 -667h-102q-18 451 -19 667v476h142z" />
<glyph unicode="&#x22;" horiz-adv-x="569" d="M225 807h-80q-43 197 -43 627h123v-627zM424 807h-80v627h123q0 -430 -43 -627z" />
<glyph unicode="#" horiz-adv-x="1382" d="M156 1024h295l106 410h129l-106 -410h378l107 410h129l-107 -410h275v-125h-305l-94 -364h264v-125h-297l-105 -410h-129l105 410h-379l-105 -410h-129l105 410h-273v125h306l94 364h-264v125zM549 899l-94 -364h379l94 364h-379z" />
<glyph unicode="$" horiz-adv-x="976" d="M539 797q205 -70 290.5 -170.5t85.5 -266.5q0 -156 -102 -262t-274 -121v-163h-99v163q-119 6 -213 40t-129 65l-37 29l48 77q147 -88 327 -88h4v580q-354 131 -354 393q0 164 99.5 264.5t254.5 118.5v133h99v-131q88 -4 170 -27.5t118 -44.5l37 -20l-41 -88 q-131 57 -278 57h-6v-538zM227 1083q0 -94 52.5 -151.5t160.5 -100.5v496q-213 -39 -213 -244zM539 109q236 39 235 266q0 88 -53 153.5t-182 116.5v-536z" />
<glyph unicode="%" horiz-adv-x="1724" d="M428 1456q147 0 253.5 -112.5t106.5 -313.5q0 -199 -108.5 -311.5t-257.5 -112.5q-147 0 -254 111.5t-107 312.5t108.5 313.5t258.5 112.5zM422 719q233 0 233 311t-227 311q-104 0 -168.5 -75.5t-64.5 -235.5q0 -311 227 -311zM1300.5 823q149.5 0 256 -112.5 t106.5 -313.5q0 -199 -108.5 -311.5t-258.5 -112.5q-147 0 -253.5 112t-106.5 312q0 199 107.5 312.5t257 113.5zM1296 86q233 0 233.5 311.5t-229.5 311.5q-102 0 -166.5 -76t-64.5 -236q0 -311 227 -311zM1479 1434l-1082 -1434h-153l1083 1434h152z" />
<glyph unicode="&#x26;" horiz-adv-x="1275" d="M1137 682q0 -248 -95 -414l213 -186l-55 -80q-78 41 -225 168q-174 -197 -455 -197q-221 0 -340 101.5t-119 279.5q0 131 75 223.5t239 213.5q-166 213 -166 354q0 154 98.5 232.5t245.5 78.5q135 0 228 -71.5t93 -196.5q0 -119 -76.5 -207t-254.5 -209q82 -98 196 -213 l213 -207q80 154 80 330h105zM553 1341q-213 0 -213 -186q0 -123 141 -305q12 10 55 41l54 40q12 9 44 35.5t43 40.5l32 37q20 25 26 43.5l13.5 43t7.5 51.5q0 76 -57.5 117.5t-145.5 41.5zM528 88q225 0 359 162l-250 248q-96 98 -195 211q-127 -96 -187 -173t-60 -180 q0 -131 91.5 -199.5t241.5 -68.5z" />
<glyph unicode="'" horiz-adv-x="329" d="M221 807h-112l-7 627h125z" />
<glyph unicode="(" horiz-adv-x="532" d="M223 547q0 -162 31 -309.5t75 -240.5t88 -164t75 -101l30 -31l-49 -61q-16 8 -43 26.5t-93.5 91t-118.5 165.5t-94 260t-42 364q0 518 264 803q70 74 127 104l49 -61q-12 -10 -32.5 -32t-71.5 -99.5t-90 -166.5t-72 -237.5t-33 -310.5z" />
<glyph unicode=")" horiz-adv-x="532" d="M309 547q0 162 -30.5 309.5t-74.5 240.5t-88 163.5t-75 101.5l-31 31l49 61q16 -8 43 -26.5t93.5 -91t119 -166t94.5 -260.5t42 -363q0 -518 -265 -803q-70 -74 -127 -104l-49 61q12 10 32.5 31.5t72 99.5t90.5 167t71.5 237.5t32.5 310.5z" />
<glyph unicode="*" horiz-adv-x="772" d="M176 897q51 94 141 197h-256v112q115 0 242 -24l-127 221l96 57q47 -82 101 -221l127 221l98 -57q-51 -88 -141 -197h254v-112q-117 0 -240 24l127 -221l-98 -55q-55 96 -99 219l-129 -219z" />
<glyph unicode="+" horiz-adv-x="1024" d="M578 678h405v-125h-405v-408h-132v408h-405v125h405v407h132v-407z" />
<glyph unicode="," d="M156 -27q-41 4 -68 33t-27 68q0 41 31 70.5t74 29.5t73.5 -29.5t30.5 -70.5q6 -53 -16 -121q-31 -98 -131 -176l-49 45q66 65 82 151z" />
<glyph unicode="-" horiz-adv-x="696" d="M41 596h614v-125h-614v125z" />
<glyph unicode="." horiz-adv-x="331" d="M270 74q0 -41 -29.5 -71t-74.5 -30q-43 0 -74 30t-31 71t31 70.5t74 29.5q45 0 74.5 -29.5t29.5 -70.5z" />
<glyph unicode="/" horiz-adv-x="804" d="M805 1434l-676 -1434h-129l676 1434h129z" />
<glyph unicode="0" horiz-adv-x="1157" d="M578 1456q250 0 373.5 -180t123.5 -561q0 -379 -125 -560.5t-372.5 -181.5t-371.5 180.5t-124 561.5t124 561t372 180zM577.5 98q174.5 0 260.5 143.5t86 473.5q0 332 -86 475t-260.5 143t-260.5 -143t-86 -475q0 -330 86 -473.5t260.5 -143.5z" />
<glyph unicode="1" horiz-adv-x="550" d="M365 1434h84v-1434h-136v1288l-272 -86v98z" />
<glyph unicode="2" horiz-adv-x="954" d="M893 1079q0 -106 -45 -198.5t-112.5 -154.5t-152.5 -131l-161 -129q-76 -60 -140.5 -149.5t-88.5 -191.5h684v-125h-816v125q0 119 71 227.5t172 191.5l203 162q101 79 172 174t71 193q0 133 -60.5 195.5t-226.5 62.5q-78 0 -158 -28.5t-121 -57.5l-43 -28l-51 86 q6 6 18.5 16t53.5 36.5t85 47t110.5 37t131.5 16.5q197 0 300.5 -95.5t103.5 -281.5z" />
<glyph unicode="3" horiz-adv-x="995" d="M487 850q47 0 95.5 -7t115 -35t115.5 -74t85 -133t36 -202q0 -195 -127 -310.5t-334 -115.5q-119 0 -226.5 32t-156.5 63l-49 30l37 84q16 -10 47 -24.5t127 -39t197 -24.5q342 0 342 309q0 324 -293 324h-222v80l431 502h-621v125h788v-125l-395 -459h8z" />
<glyph unicode="4" horiz-adv-x="1007" d="M967 528v-125h-142v-403h-131v403h-653v125l534 930h146l-535 -930h508v426h131v-426h142z" />
<glyph unicode="5" horiz-adv-x="978" d="M176 1434h723v-125h-604l-37 -457q86 55 227 55q182 0 307.5 -119.5t125.5 -332.5q0 -201 -136.5 -341.5t-339.5 -140.5q-236 0 -368 113l-13 12l43 84q10 -10 31 -24.5t101.5 -39t181 -24.5t174.5 37t110.5 94.5t53 112.5t16.5 108q0 340 -295 340q-78 0 -147.5 -21.5 t-100.5 -43.5l-28 -21l-82 17z" />
<glyph unicode="6" horiz-adv-x="1017" d="M520 -27q-94 0 -166.5 27t-119 80t-78 116.5t-47 152.5t-21.5 171t-6 187q0 199 44 349t120 234t164 125t186 41q162 0 293 -108l6 -7l-47 -75q-88 76 -227 75q-213 0 -313.5 -159.5t-100.5 -444.5v-47h6q31 72 120 136.5t214 64.5q184 0 296.5 -120t112.5 -329 q0 -211 -127 -340t-309 -129zM571 774q-90 0 -160.5 -37t-109.5 -91t-57.5 -93t-26.5 -68q18 -182 86 -290.5t217 -108.5q125 0 215 92t90 264q0 150 -69.5 241t-184.5 91z" />
<glyph unicode="7" horiz-adv-x="931" d="M41 1434h850v-125l-422 -1309h-143l422 1309h-707v125z" />
<glyph unicode="8" horiz-adv-x="1054" d="M659 770q172 -92 248 -185t76 -233q0 -174 -121 -276.5t-338 -102.5t-334.5 99.5t-117.5 269.5q0 88 36.5 166t95 130t102.5 82t85 48q-129 74 -190.5 156t-61.5 200q0 139 100.5 235.5t286.5 96.5q182 0 283.5 -94t101.5 -244q0 -63 -26.5 -122.5t-69.5 -103.5t-81 -73 t-75 -49zM270 1124q0 -100 68 -165.5t207 -129.5l2 -2h4q84 33 158.5 107t74.5 178q0 113 -69.5 170t-188.5 57q-111 0 -183.5 -52t-72.5 -163zM526 92q168 0 246 69.5t78 190.5q0 113 -70.5 188.5t-253.5 157.5l-24 13q-33 -12 -77 -39t-98.5 -71t-90 -108.5t-35.5 -134.5 q0 -119 76.5 -192.5t248.5 -73.5z" />
<glyph unicode="9" horiz-adv-x="1017" d="M498 1456q94 0 166.5 -26.5t118.5 -80t78 -117t47.5 -152.5t21.5 -171t6 -186q0 -199 -44 -349.5t-120 -234.5t-164 -125t-186 -41q-162 0 -293 109l-6 6l47 76q88 -76 227 -76q213 0 313.5 160t100.5 444v47h-6q-31 -72 -120 -136t-214 -64q-184 0 -297 119.5 t-113 328.5q0 211 127.5 340t309.5 129zM446 655q90 0 161 37t110 91.5t57.5 93t26.5 67.5q-18 182 -86 290.5t-217 108.5q-125 0 -215 -92t-90 -264q0 -150 69 -241t184 -91z" />
<glyph unicode=":" horiz-adv-x="331" d="M270 74q0 -41 -29.5 -71t-74.5 -30q-43 0 -74 30t-31 71t31 70.5t74 29.5q45 0 74.5 -29.5t29.5 -70.5zM270 879q0 -41 -29.5 -71t-74.5 -30q-43 0 -74 30t-31 71t31 70.5t74 29.5q45 0 74.5 -29.5t29.5 -70.5z" />
<glyph unicode=";" d="M270 879q0 -41 -29.5 -71t-74.5 -30q-43 0 -74 30t-31 71t31 70.5t74 29.5q45 0 74.5 -29.5t29.5 -70.5zM156 -27q-41 4 -68 33t-27 68q0 41 31 70.5t74 29.5t73.5 -29.5t30.5 -70.5q6 -53 -16 -121q-31 -98 -131 -176l-49 45q66 65 82 151z" />
<glyph unicode="&#x3c;" horiz-adv-x="1044" d="M41 584l963 495v-135l-799 -412l799 -411v-135l-963 495v103z" />
<glyph unicode="=" horiz-adv-x="1024" d="M41 897h942v-125h-942v125zM41 455h942v-123h-942v123z" />
<glyph unicode="&#x3e;" horiz-adv-x="1044" d="M41 1079l963 -495v-103l-963 -495v135l799 411l-799 412v135z" />
<glyph unicode="?" horiz-adv-x="884" d="M483 74q0 -41 -30.5 -71t-73.5 -30t-74 30t-31 71t31 70.5t74 29.5t73.5 -29.5t30.5 -70.5zM844 1049q0 -84 -22.5 -152t-58.5 -113t-80 -85l-88 -77q-44 -38 -80 -82t-58.5 -107.5t-22.5 -141.5h-110q0 111 27.5 194.5t69.5 130t91 93.5l91 85q42 38 69.5 102.5 t27.5 145.5q0 137 -79.5 213t-227.5 76q-78 0 -157.5 -28.5t-120.5 -57.5l-43 -28l-52 86q6 6 18.5 16t53.5 36.5t85 47t110.5 37t132.5 16.5q197 0 310.5 -108.5t113.5 -298.5z" />
<glyph unicode="@" horiz-adv-x="1748" d="M889 -47q172 0 325.5 69.5t247.5 184.5l60 -53q-115 -152 -284 -230t-349 -78q-168 0 -315.5 54.5t-263 157t-182.5 266t-67 366.5q0 274 132.5 485t331 315.5t421.5 104.5q348 0 545 -190.5t197 -497.5q0 -291 -147.5 -490.5t-301.5 -199.5q-27 0 -50.5 8t-50 31t-40 73 t-8.5 124l-11 -26q-6 -15 -31.5 -56t-56 -72t-87 -56.5t-120.5 -25.5q-131 0 -225 107.5t-94 314.5q0 233 140 413.5t345 180.5q131 0 219 -72l7 47h120l-88 -716q-23 -162 47 -162q37 0 88.5 30.5t107.5 92t95 181.5t39 273q0 279 -180 432.5t-459 153.5q-123 0 -252 -49 t-244.5 -142.5t-189.5 -253t-74 -358.5q0 -190 63.5 -337.5t169 -231.5t224.5 -126t246 -42zM1120 733l37 326q-72 68 -207 67q-158 0 -255 -143t-97 -334q0 -319 205 -319q61 0 116.5 42t91.5 101t61.5 117.5t37.5 101.5z" />
<glyph unicode="A" horiz-adv-x="1165" d="M985 0l-149 434h-527l-137 -434h-131l455 1434h131l497 -1434h-139zM346 551h449l-234 676z" />
<glyph unicode="B" horiz-adv-x="1142" d="M995 1079q0 -223 -174 -288q-35 -14 -63 -17v-6q12 -2 32.5 -6t72.5 -26.5t92 -56.5t73 -104.5t33 -160.5q0 -205 -115 -309.5t-381 -104.5h-463v1434h418q475 -1 475 -355zM231 1311v-494h318q135 0 224 68.5t89 193.5t-83 178.5t-259 53.5h-289zM565 125q70 0 115 4 t95 20.5t79 47t47.5 85t18.5 132.5q0 145 -89.5 211.5t-238.5 66.5h-361v-567h334z" />
<glyph unicode="C" horiz-adv-x="1142" d="M711 98q96 0 183 23.5t126 46.5l41 25l41 -80q-6 -6 -18.5 -15.5t-53.5 -33t-88 -42t-122 -34t-154 -15.5q-115 0 -214.5 37t-185.5 117t-135 227.5t-49 347.5q0 172 36 306.5t92 217.5t134 136t156 73.5t162 20.5q104 0 206.5 -31.5t151.5 -64.5l51 -31l-41 -80 q-147 82 -323 82q-479 0 -480 -629q1 -604 484 -604z" />
<glyph unicode="D" horiz-adv-x="1171" d="M102 1434h406q258 0 420 -182.5t162 -536.5q0 -350 -162 -532.5t-420 -182.5h-406v1434zM508 125q186 0 310 144.5t124 445.5q0 303 -124 448.5t-310 145.5h-275v-1184h275z" />
<glyph unicode="E" horiz-adv-x="1007" d="M946 0h-844v1434h836v-125h-707v-506h603v-125h-603v-553h715v-125z" />
<glyph unicode="F" horiz-adv-x="978" d="M102 1434h836v-125h-707v-508h600v-125h-600v-676h-129v1434z" />
<glyph unicode="G" horiz-adv-x="1204" d="M971 172v561h131v-627q-16 -14 -50 -36.5t-146.5 -59.5t-239.5 -37q-115 0 -214.5 37t-185.5 117t-135 227.5t-49 347.5q0 203 52 355.5t140 235.5t185.5 123t202 40t207 -31.5t151.5 -64.5l51 -31l-39 -80q-150 82 -325 82q-215 0 -346.5 -153.5t-131.5 -475.5 q0 -604 471 -604q136 0 271 74z" />
<glyph unicode="H" horiz-adv-x="1218" d="M985 801v633h131v-1434h-131v676h-754v-676h-129v1434h129v-633h754z" />
<glyph unicode="I" d="M231 1434v-1434h-129v1434h129z" />
<glyph unicode="J" horiz-adv-x="462" d="M231 449v985h129v-985q0 -57 -6 -109.5t-27.5 -120t-56 -118t-101.5 -87.5t-155 -41l-14 95q117 33 174 116t57 265z" />
<glyph unicode="K" horiz-adv-x="1079" d="M231 516v-516h-129v1434h129v-723l609 723h166l-537 -637l610 -797h-164l-532 694z" />
<glyph unicode="L" horiz-adv-x="987" d="M946 0h-844v1434h129v-1309h715v-125z" />
<glyph unicode="M" horiz-adv-x="1495" d="M231 0h-129v1434h129l531 -1012l500 1012h131v-1434h-131v1145l-439 -875h-118l-474 891v-1161z" />
<glyph unicode="N" horiz-adv-x="1245" d="M1143 0h-146l-766 1225v-1225h-129v1434h146l766 -1225v1225h129v-1434z" />
<glyph unicode="O" horiz-adv-x="1325" d="M663.5 1456q260.5 0 420 -186.5t159.5 -555t-159.5 -555t-420 -186.5t-421 187.5t-160.5 554t160.5 554t421 187.5zM663.5 98q188.5 0 311.5 149.5t123 467t-123 467t-311.5 149.5t-311.5 -149.5t-123 -467t123 -467t311.5 -149.5z" />
<glyph unicode="P" horiz-adv-x="1091" d="M102 1434h375q553 0 553 -418q0 -209 -139 -319.5t-414 -110.5h-239v-586h-136v1434zM889 1016q0 94 -34 156.5t-99.5 90t-128 37t-150.5 9.5h-239v-598h239q90 0 154.5 10t128 41t96.5 94.5t33 159.5z" />
<glyph unicode="Q" horiz-adv-x="1339" d="M850 2l407 -260l-38 -61q-160 41 -555 292q-260 0 -421 187.5t-161 554t160.5 554t421 187.5t420 -186.5t159.5 -554.5q0 -295 -105.5 -474.5t-287.5 -238.5zM229 714.5q0 -317.5 123 -467t312 -149.5q186 0 309 149.5t123 467t-123 467t-309 149.5q-188 0 -311.5 -149.5 t-123.5 -467z" />
<glyph unicode="R" horiz-adv-x="1091" d="M1030 0h-145l-297 590q-70 -4 -109 -4h-239v-586h-138v1434h377q268 0 409.5 -104.5t141.5 -313.5q0 -315 -309 -402zM240 711h239q70 0 123 5t109.5 24.5t93.5 51t60.5 89t23.5 135.5q0 94 -34 156.5t-98.5 90t-127 37t-150.5 9.5h-239v-598z" />
<glyph unicode="S" horiz-adv-x="1091" d="M977 1364l-29 -88q-166 55 -354 55q-367 0 -367 -252q0 -59 24.5 -103t77 -75t99.5 -49t125 -43q14 -4 20 -6q240 -80 348.5 -174t108.5 -271q0 -180 -129 -282.5t-342 -102.5q-301 0 -479 119l-19 14l41 87q195 -94 402 -95q383 0 383 273q0 106 -82 168.5t-268 124.5 l-135.5 47t-119 55t-105.5 75t-63.5 97t-27.5 133q0 182 128 283.5t337 101.5q106 0 212.5 -23.5t160.5 -46.5z" />
<glyph unicode="T" horiz-adv-x="1067" d="M41 1434h985v-125h-428v-1309h-129v1309h-428v125z" />
<glyph unicode="U" horiz-adv-x="1196" d="M1094 1434v-947q0 -117 -32 -209t-82 -148t-116.5 -92t-132 -50.5t-133.5 -14.5q-86 0 -167 25t-157.5 79t-124 160.5t-47.5 249.5v947h129v-947q0 -195 96.5 -292t270.5 -97t269.5 97.5t95.5 291.5v947h131z" />
<glyph unicode="V" horiz-adv-x="1196" d="M657 0h-118l-539 1434h139l459 -1221l459 1221h139z" />
<glyph unicode="W" horiz-adv-x="1814" d="M834 1298h147l338 -1044l358 1180h138l-435 -1434h-120l-353 1087l-352 -1087h-121l-434 1434h137l359 -1180z" />
<glyph unicode="X" horiz-adv-x="1126" d="M553 846h20l383 588h158l-463 -711l475 -723h-157l-406 616l-405 -616h-158l475 723l-463 711h158z" />
<glyph unicode="Y" horiz-adv-x="1198" d="M1053 1434h145l-520 -881v-553h-131v547l-547 887h145l467 -750z" />
<glyph unicode="Z" horiz-adv-x="1054" d="M70 1309v125h936v-125l-807 -1184h815v-125h-973v125l807 1184h-778z" />
<glyph unicode="[" horiz-adv-x="534" d="M524 -342h-422v1776h422v-119h-293v-1538h293v-119z" />
<glyph unicode="\" horiz-adv-x="804" d="M676 0l-676 1434h129l676 -1434h-129z" />
<glyph unicode="]" horiz-adv-x="534" d="M432 -342h-422v119h293v1538h-293v119h422v-1776z" />
<glyph unicode="^" horiz-adv-x="716" d="M307 1434h103l307 -492h-135l-224 358l-223 -358h-135z" />
<glyph unicode="_" horiz-adv-x="614" d="M0 0h614v-125h-614v125z" />
<glyph unicode="`" horiz-adv-x="452" d="M453 1024h-125l-328 410h178z" />
<glyph unicode="a" horiz-adv-x="907" d="M467 967q172 0 255 -89.5t83 -314.5v-563h-100q-12 74 -19 145q-152 -156 -330 -155q-129 0 -206.5 65.5t-77.5 177.5q0 94 50 160t189.5 111t368.5 47v12q0 174 -53.5 236.5t-190.5 62.5q-57 0 -126.5 -13t-110.5 -28l-41 -14l-27 76q158 84 336 84zM365 94 q168 0 315 178v179q-240 -2 -361.5 -49.5t-121.5 -159.5q0 -76 47 -112t121 -36z" />
<glyph unicode="b" horiz-adv-x="933" d="M455 979q184 0 300.5 -115.5t116.5 -357.5q0 -236 -119.5 -382.5t-320.5 -146.5q-88 0 -170 24t-121 48l-39 23v1362h125v-521q87 66 228 66zM408 88q158 0 249 109.5t91 308.5q0 182 -85 274t-231 92q-121 0 -205 -79v-670q87 -35 181 -35z" />
<glyph unicode="c" horiz-adv-x="811" d="M494 82q66 0 128 14.5t91 26.5l30 14l27 -76q-12 -10 -35.5 -23t-103.5 -37t-168 -24q-170 0 -286 132.5t-116 359.5q0 229 115 369.5t285 140.5q80 0 151.5 -20.5t104.5 -40.5l33 -23l-27 -76q-102 53 -231 53q-133 0 -220.5 -113.5t-87.5 -289.5q0 -172 87.5 -279.5 t222.5 -107.5z" />
<glyph unicode="d" horiz-adv-x="917" d="M815 1399v-1399h-100q-12 74 -19 143q-139 -168 -301 -168q-90 0 -157.5 38t-104.5 105.5t-54.5 146.5t-17.5 173q0 539 428 539q113 0 201 -70v492h125zM193 438q0 -96 18 -173t68.5 -131t126.5 -54q135 0 284 194v527q-84 74 -192 73q-68 0 -114 -13t-94 -54 t-72.5 -134.5t-24.5 -234.5z" />
<glyph unicode="e" horiz-adv-x="876" d="M512 86q162 0 260 47l27 -72q-125 -84 -310 -84q-193 0 -310.5 130.5t-117.5 359.5q0 231 124 371.5t292 140.5q96 0 166 -44t105.5 -121t51 -160t15.5 -179l-629 -10q0 -186 98.5 -282.5t227.5 -96.5zM477 877q-102 0 -185 -90.5t-102 -241.5q166 27 500 35 q-4 125 -59.5 211t-153.5 86z" />
<glyph unicode="f" horiz-adv-x="618" d="M479 1354q-143 0 -143 -219v-181h244v-108q-139 0 -244 14v-860h-123v846h-172v108h172v181q0 172 65.5 246.5t194.5 74.5q104 0 207 -76l-27 -71q-96 45 -174 45z" />
<glyph unicode="g" horiz-adv-x="890" d="M283 158h247q47 0 95.5 -10.5t102.5 -37t89 -86t35 -141.5q0 -160 -119 -237.5t-309 -77.5q-193 0 -288 73.5t-95 200.5q0 135 113 248q-51 35 -52 109q0 80 88 168q-88 90 -88 251q0 156 98.5 252.5t245.5 96.5q102 0 183 -43q70 31 241 30v-96l-170 6l-2 -2 q43 -37 72 -112q20 -55 21 -132q0 -152 -97.5 -249t-247.5 -97q-111 0 -190 45q-16 -18 -29.5 -43.5t-18.5 -52t13.5 -45t61.5 -18.5zM446 866q-109 0 -169 -67.5t-60 -180.5q0 -246 229 -245q106 0 167 67.5t61 177.5q-1 248 -228 248zM432 -330q123 0 212 48.5t89 164.5 q0 82 -60.5 128t-142.5 46h-247q-31 0 -43 2q-8 -6 -21.5 -20t-36 -64.5t-22.5 -111.5q0 -51 17.5 -88t43 -56.5t64.5 -31t71.5 -14.5t75.5 -3z" />
<glyph unicode="h" horiz-adv-x="925" d="M823 629v-629h-125v629q0 129 -34.5 187t-135.5 58q-150 0 -301 -180v-694h-125v1434h125v-607q147 152 312 152q162 0 223 -91t61 -259z" />
<glyph unicode="i" horiz-adv-x="354" d="M115 954h125v-954h-125v954zM252 1186q0 -31 -21.5 -51.5t-52.5 -20.5t-53.5 20.5t-22.5 51.5q0 29 22.5 50t53.5 21t52.5 -21t21.5 -50z" />
<glyph unicode="j" horiz-adv-x="399" d="M160 0v954h125v-954q0 -66 -2 -110t-19.5 -117.5t-47.5 -119.5t-92.5 -84t-150.5 -42l-14 78q109 31 155 116.5t46 278.5zM297 1186q0 -31 -21.5 -51.5t-52.5 -20.5q-33 0 -54.5 20.5t-21.5 51.5q0 29 21.5 50t54.5 21q31 0 52.5 -21t21.5 -50z" />
<glyph unicode="k" horiz-adv-x="854" d="M426 555l408 -555h-152l-338 463l-117 -129v-334h-125v1434h125v-930l408 450h153z" />
<glyph unicode="l" horiz-adv-x="376" d="M229 461q0 -141 3.5 -198.5t21.5 -119t61 -90.5l-14 -76q-47 6 -83 26t-56.5 58.5t-32.5 73.5t-17.5 97.5t-6.5 98.5t-1 105v25v973h125v-973z" />
<glyph unicode="m" horiz-adv-x="1431" d="M1047 979q164 0 223 -107.5t59 -322.5v-549h-125v549q0 154 -34.5 239.5t-131.5 85.5q-76 0 -132 -46t-128 -144v-684h-125v588q0 287 -166 286q-76 0 -133 -47t-127 -143v-684h-125v954h101q12 -70 18 -139q115 164 275 164q203 0 256 -195q125 195 295 195z" />
<glyph unicode="n" horiz-adv-x="937" d="M524 979q311 0 312 -430v-549h-125v549q0 143 -48.5 234t-146.5 91q-141 0 -289 -192v-682h-125v954h101q12 -72 18 -143q139 168 303 168z" />
<glyph unicode="o" horiz-adv-x="976" d="M492 979q174 0 298.5 -133t124.5 -369q0 -233 -126.5 -366.5t-303.5 -133.5q-174 0 -299 132.5t-125 368t127.5 368.5t303.5 133zM485 86q135 0 218 99.5t83 291.5q0 190 -84 291.5t-210 101.5q-123 0 -212.5 -102t-89.5 -291q0 -193 82 -292t213 -99z" />
<glyph unicode="p" horiz-adv-x="917" d="M102 -444v1398h101q12 -74 18 -143q139 168 301 168q90 0 158 -38t104.5 -105.5t54 -146.5t17.5 -173q0 -539 -428 -539q-113 0 -201 70v-491h-125zM725 516q0 96 -18.5 173t-68.5 131t-126 54q-135 0 -285 -194v-526q84 -74 193 -74q68 0 114 13t94 54t72.5 134.5 t24.5 234.5z" />
<glyph unicode="q" horiz-adv-x="933" d="M479 -23q-184 0 -301 116t-117 358q0 236 120 382t321 146q88 0 170 -23.5t121 -46.5l38 -24v-1329h-124v487q-87 -66 -228 -66zM526 868q-158 0 -249 -109.5t-91 -307.5q0 -182 85 -274.5t231 -92.5q121 0 205 80v670q-87 34 -181 34z" />
<glyph unicode="r" horiz-adv-x="651" d="M268 788q115 178 363 179v-133q-98 0 -176 -29t-119 -70t-67.5 -82t-35.5 -69l-6 -29v-555h-125v954h101q25 -154 24 -231v-21q14 47 41 86z" />
<glyph unicode="s" horiz-adv-x="806" d="M709 915l-25 -69q-117 29 -246 28q-252 0 -252 -157q0 -41 33 -72t65.5 -43t106.5 -35q18 -6 27 -8q94 -29 137 -46t96.5 -52t73.5 -84t20 -123q0 -131 -98 -204t-246 -73q-215 0 -333 86l-7 5l31 67q133 -49 273 -49q260 0 260 176q0 72 -52.5 106.5t-181.5 67.5 q-72 18 -119 35.5t-100 49.5t-79.5 79t-26.5 111q0 135 97 201.5t249 66.5q72 0 145.5 -16.5t112.5 -32.5z" />
<glyph unicode="t" horiz-adv-x="702" d="M655 125l27 -72q-106 -76 -213 -76q-256 0 -256 322v547h-172v108h172v105q0 57 8 115.5t17 87.5l8 30h92v-338h242v-108q-141 0 -242 14v-561q0 -127 37 -173t104 -46q35 0 79 11t71 24z" />
<glyph unicode="u" horiz-adv-x="935" d="M412 -23q-309 0 -310 433v544h123v-544q0 -143 48.5 -235.5t146.5 -92.5q141 0 289 192v680h125v-954h-101q-10 74 -18 145q-139 -168 -303 -168z" />
<glyph unicode="v" horiz-adv-x="835" d="M127 954l299 -751l283 751h127l-359 -954h-104l-373 954h127z" />
<glyph unicode="w" horiz-adv-x="1277" d="M582 864h114l234 -643l227 733h121l-295 -954h-100l-244 670l-244 -670h-100l-295 954h121l227 -733z" />
<glyph unicode="x" horiz-adv-x="815" d="M399 598h17l235 356h142l-304 -460l326 -494h-145l-262 395l-263 -395h-145l326 494l-303 460h141z" />
<glyph unicode="y" horiz-adv-x="835" d="M707 954h129l-340 -1106q-45 -147 -116 -223t-181 -76q-104 0 -176 76l43 70q68 -39 124 -39q119 0 185 223l35 121h-84l-326 954h135l301 -876z" />
<glyph unicode="z" horiz-adv-x="774" d="M59 842v112h668v-110l-537 -731h543v-113h-692v111l537 731h-519z" />
<glyph unicode="{" horiz-adv-x="612" d="M61 508v90q68 0 120 46t52 153v315q0 322 256 322h113v-103h-98q-68 0 -105 -46t-37 -173v-289q0 -68 -14 -121t-33.5 -79.5t-39 -44t-33.5 -21.5l-15 -4l16 -5q9 -3 31.5 -20.5t41 -44t32.5 -80t14 -120.5v-289q0 -127 37 -173t105 -46h98v-103h-113q-256 0 -256 322 v315q0 106 -52 152.5t-120 46.5z" />
<glyph unicode="|" d="M231 1577v-1720h-129v1720h129z" />
<glyph unicode="}" horiz-adv-x="612" d="M551 598v-90q-68 0 -120 -46t-52 -153v-315q0 -322 -256 -322h-113v103h99q68 0 104.5 46t36.5 173v289q0 68 14.5 121t33.5 79.5t38.5 44t34.5 21.5l14 4l-15 5q-9 3 -32 20.5t-41 44t-32.5 80t-14.5 120.5v289q0 127 -37 173t-104 46h-99v103h113q256 0 256 -322v-315 q0 -106 52 -152.5t120 -46.5z" />
<glyph unicode="~" horiz-adv-x="1058" d="M504 475q-139 61 -230 62q-100 0 -168 -82l-65 43q84 160 254 159q102 0 260 -67q139 -61 229 -62q100 0 168 82l66 -43q-84 -160 -254 -159q-102 -1 -260 67z" />
<glyph unicode="&#xa4;" horiz-adv-x="1132" d="M20 512l21 100h102v52h-123l21 100h102v670h377q266 0 408.5 -100.5t142.5 -291.5q0 -182 -143.5 -280t-407.5 -98h-239v-52h251q164 0 243 -51t151 -192l186 -369h-145l-174 344q-47 94 -106.5 131t-154.5 37h-251v-512h-138v512h-123zM281 764h239q70 0 123 5 t109.5 22.5t93.5 47t60.5 82t23.5 121.5q0 84 -34 140.5t-98.5 82t-127 35t-150.5 9.5h-239v-545z" />
<glyph unicode="&#xa6;" d="M231 1577v-737h-129v737h129zM231 -143h-129v737h129v-737z" />
<glyph unicode="&#xa7;" horiz-adv-x="884" d="M803 647q0 -131 -96 -213q66 -72 65 -180q0 -131 -98.5 -204t-245.5 -73q-215 0 -334 86l-6 5l31 67q133 -49 272 -49q260 0 260 176q0 76 -58 123t-142 74.5t-168 59.5t-142.5 99.5t-58.5 174.5q0 135 94 213q-63 70 -63 180q0 135 98 202.5t248 67.5q72 0 145.5 -15.5 t112.5 -31.5l39 -16l-25 -70q-117 29 -246 29q-252 0 -252 -160q0 -63 42 -109.5t106 -69.5l137 -54q74 -30 137.5 -61.5t105.5 -96t42 -154.5zM682 655q0 88 -60.5 135.5t-185.5 86t-172 63.5q-61 -61 -61 -141q0 -68 43 -116t96 -69.5t138 -52.5t132 -55q70 63 70 149z " />
<glyph unicode="&#xa9;" horiz-adv-x="1568" d="M829 322q61 0 113.5 15t73.5 32l22 16l45 -63q-10 -10 -31.5 -28t-93 -45.5t-153.5 -27.5q-160 0 -275.5 116t-115.5 361q0 135 35.5 236.5t96 155t125 78t132.5 24.5q66 0 131 -23.5t98 -46.5l33 -24l-35 -62q-92 55 -205 56q-139 0 -216 -89.5t-77 -304.5 q0 -203 75 -289.5t222 -86.5zM784 1456q311 0 517 -196.5t206 -544.5q0 -340 -211 -541t-512 -201q-297 0 -510 200t-213 542q0 233 103.5 405t265 254t354.5 82zM784 43q172 0 312.5 71.5t229.5 227.5t89 373q0 164 -53 295t-143.5 210.5t-202 121.5t-232 42t-232.5 -42 t-202 -121.5t-144 -210.5t-54 -295q0 -324 181 -498t451 -174z" />
<glyph unicode="&#xaa;" horiz-adv-x="907" d="M467 967q172 0 255 -89.5t83 -314.5v-563h-100q-12 74 -19 145q-152 -156 -330 -155q-129 0 -206.5 65.5t-77.5 177.5q0 94 50 160t189.5 111t368.5 47v12q0 174 -53.5 236.5t-190.5 62.5q-57 0 -126.5 -13t-110.5 -28l-41 -14l-27 76q158 84 336 84zM365 94 q168 0 315 178v179q-240 -2 -361.5 -49.5t-121.5 -159.5q0 -76 47 -112t121 -36z" />
<glyph unicode="&#xab;" horiz-adv-x="782" d="M467 969l-281 -486l273 -473l-58 -35q-14 12 -40.5 42t-121 162t-198.5 313q104 180 193.5 310t125.5 169l37 39zM741 45l-69 -41q-12 10 -36 34.5t-113 149.5t-193 306q104 180 190 302t119 154l35 31l59 -35l-258 -444z" />
<glyph unicode="&#xac;" horiz-adv-x="888" d="M848 721v-330h-129v205h-678v125h807z" />
<glyph unicode="&#xad;" horiz-adv-x="696" d="M41 596h614v-125h-614v125z" />
<glyph unicode="&#xae;" horiz-adv-x="1568" d="M1100 905q0 -207 -201 -262l201 -401h-111l-194 385q-16 -2 -54 -2h-127v-383h-104v934h231q359 -1 359 -271zM731 719q266 0 266 186q0 57 -21.5 94t-63.5 53.5t-83 22.5t-98 6h-117v-362h117zM784 1456q311 0 517 -196.5t206 -544.5q0 -340 -211 -541t-512 -201 q-297 0 -510 200t-213 542q0 233 103.5 405t265 254t354.5 82zM784 43q172 0 312.5 71.5t229.5 227.5t89 373q0 164 -53 295t-143.5 210.5t-202 121.5t-232 42t-232.5 -42t-202 -121.5t-144 -210.5t-54 -295q0 -324 181 -498t451 -174z" />
<glyph unicode="&#xb0;" horiz-adv-x="808" d="M408 1456q147 0 253.5 -112.5t106.5 -313.5q0 -199 -108.5 -311.5t-258.5 -112.5q-147 0 -253.5 111.5t-106.5 312.5t108.5 313.5t258.5 112.5zM401 719q233 0 233.5 311t-226.5 311q-104 0 -169 -75.5t-65 -235.5q0 -311 227 -311z" />
<glyph unicode="&#xb1;" horiz-adv-x="1187" d="M659 928h488v-125h-488v-406h-131v406h-487v125h487v405h131v-405zM41 233h1106v-124h-1106v124z" />
<glyph unicode="&#xb2;" horiz-adv-x="954" d="M893 1079q0 -106 -45 -198.5t-112.5 -154.5t-152.5 -131l-161 -129q-76 -60 -140.5 -149.5t-88.5 -191.5h684v-125h-816v125q0 119 71 227.5t172 191.5l203 162q101 79 172 174t71 193q0 133 -60.5 195.5t-226.5 62.5q-78 0 -158 -28.5t-121 -57.5l-43 -28l-51 86 q6 6 18.5 16t53.5 36.5t85 47t110.5 37t131.5 16.5q197 0 300.5 -95.5t103.5 -281.5z" />
<glyph unicode="&#xb3;" horiz-adv-x="995" d="M487 850q47 0 95.5 -7t115 -35t115.5 -74t85 -133t36 -202q0 -195 -127 -310.5t-334 -115.5q-119 0 -226.5 32t-156.5 63l-49 30l37 84q16 -10 47 -24.5t127 -39t197 -24.5q342 0 342 309q0 324 -293 324h-222v80l431 502h-621v125h788v-125l-395 -459h8z" />
<glyph unicode="&#xb5;" horiz-adv-x="935" d="M422 -23q-121 0 -197 99v-520h-123v1398h123v-473q0 -176 49.5 -282.5t155.5 -106.5q131 0 279 193v669h125v-954h-101q-10 74 -18 145q-139 -168 -293 -168z" />
<glyph unicode="&#x3bc;" horiz-adv-x="935" d="M422 -23q-121 0 -197 99v-520h-123v1398h123v-473q0 -176 49.5 -282.5t155.5 -106.5q131 0 279 193v669h125v-954h-101q-10 74 -18 145q-139 -168 -293 -168z" />
<glyph unicode="&#xb6;" horiz-adv-x="946" d="M473 1434h371v-1878h-115v1753h-141v-1753h-115v1089q-156 0 -284 112.5t-128 278.5q0 176 126 287t286 111z" />
<glyph unicode="&#xb7;" horiz-adv-x="512" d="M360 719q0 -41 -29.5 -71t-74.5 -30q-43 0 -73.5 30t-30.5 71t30.5 70.5t73.5 29.5q45 0 74.5 -29.5t29.5 -70.5z" />
<glyph unicode="&#xb9;" horiz-adv-x="550" d="M365 1434h84v-1434h-136v1288l-272 -86v98z" />
<glyph unicode="&#xba;" horiz-adv-x="976" d="M492 979q174 0 298.5 -133t124.5 -369q0 -233 -126.5 -366.5t-303.5 -133.5q-174 0 -299 132.5t-125 368t127.5 368.5t303.5 133zM485 86q135 0 218 99.5t83 291.5q0 190 -84 291.5t-210 101.5q-123 0 -212.5 -102t-89.5 -291q0 -193 82 -292t213 -99z" />
<glyph unicode="&#xbb;" horiz-adv-x="782" d="M111 4l-70 41l266 457l-258 444l60 35q12 -8 36.5 -32.5t113.5 -149.5t194 -305q-104 -180 -190.5 -303t-119.5 -154zM596 483l-281 486l70 41q14 -12 41 -42t119 -163t196 -313q-104 -180 -194 -309.5t-129 -168.5l-37 -39l-57 35z" />
<glyph unicode="&#xc0;" horiz-adv-x="1165" d="M625 1579h-125l-328 410h178zM985 0l-149 434h-527l-137 -434h-131l455 1434h131l497 -1434h-139zM346 551h449l-234 676z" />
<glyph unicode="&#xc2;" horiz-adv-x="1165" d="M510 2071h103l307 -492h-135l-224 358l-223 -358h-135zM985 0l-149 434h-527l-137 -434h-131l455 1434h131l497 -1434h-139zM346 551h449l-234 676z" />
<glyph unicode="&#xc3;" horiz-adv-x="1165" d="M537 1646q-139 61 -230 62q-100 0 -168 -82l-65 43q84 160 254 159q102 0 260 -67q139 -61 229 -62q100 0 168 82l66 -43q-84 -160 -254 -159q-102 -1 -260 67zM985 0l-149 434h-527l-137 -434h-131l455 1434h131l497 -1434h-139zM346 551h449l-234 676z" />
<glyph unicode="&#xc5;" horiz-adv-x="1165" d="M564 2277q147 0 253.5 -112.5t106.5 -313.5q0 -199 -108.5 -311.5t-258.5 -112.5q-147 0 -253.5 111.5t-106.5 312.5t108.5 313.5t258.5 112.5zM557 1540q233 0 233.5 311t-226.5 311q-104 0 -169 -75.5t-65 -235.5q0 -311 227 -311zM985 0l-149 434h-527l-137 -434h-131 l455 1434h131l497 -1434h-139zM346 551h449l-234 676z" />
<glyph unicode="&#xc8;" horiz-adv-x="1007" d="M584 1579h-125l-328 410h178zM946 0h-844v1434h836v-125h-707v-506h603v-125h-603v-553h715v-125z" />
<glyph unicode="&#xca;" horiz-adv-x="1007" d="M469 2071h103l307 -492h-135l-224 358l-223 -358h-135zM946 0h-844v1434h836v-125h-707v-506h603v-125h-603v-553h715v-125z" />
<glyph unicode="&#xcc;" d="M230 1579h-125l-328 410h178zM231 1434v-1434h-129v1434h129z" />
<glyph unicode="&#xce;" d="M114 2071h103l307 -492h-135l-224 358l-223 -358h-135zM231 1434v-1434h-129v1434h129z" />
<glyph unicode="&#xd1;" horiz-adv-x="1245" d="M598 1646q-139 61 -230 62q-100 0 -168 -82l-65 43q84 160 254 159q102 0 260 -67q139 -61 229 -62q100 0 168 82l66 -43q-84 -160 -254 -159q-102 -1 -260 67zM1143 0h-146l-766 1225v-1225h-129v1434h146l766 -1225v1225h129v-1434z" />
<glyph unicode="&#xd2;" horiz-adv-x="1325" d="M727 1579h-125l-328 410h178zM663.5 1456q260.5 0 420 -186.5t159.5 -555t-159.5 -555t-420 -186.5t-421 187.5t-160.5 554t160.5 554t421 187.5zM663.5 98q188.5 0 311.5 149.5t123 467t-123 467t-311.5 149.5t-311.5 -149.5t-123 -467t123 -467t311.5 -149.5z" />
<glyph unicode="&#xd4;" horiz-adv-x="1325" d="M612 2071h103l307 -492h-135l-224 358l-223 -358h-135zM663.5 1456q260.5 0 420 -186.5t159.5 -555t-159.5 -555t-420 -186.5t-421 187.5t-160.5 554t160.5 554t421 187.5zM663.5 98q188.5 0 311.5 149.5t123 467t-123 467t-311.5 149.5t-311.5 -149.5t-123 -467 t123 -467t311.5 -149.5z" />
<glyph unicode="&#xd5;" horiz-adv-x="1325" d="M639 1646q-139 61 -230 62q-100 0 -168 -82l-65 43q84 160 254 159q102 0 260 -67q139 -61 229 -62q100 0 168 82l66 -43q-84 -160 -254 -159q-102 -1 -260 67zM663.5 1456q260.5 0 420 -186.5t159.5 -555t-159.5 -555t-420 -186.5t-421 187.5t-160.5 554t160.5 554 t421 187.5zM663.5 98q188.5 0 311.5 149.5t123 467t-123 467t-311.5 149.5t-311.5 -149.5t-123 -467t123 -467t311.5 -149.5z" />
<glyph unicode="&#xd7;" horiz-adv-x="1069" d="M535 709l401 401l92 -92l-401 -402l401 -401l-92 -92l-401 401l-402 -401l-92 92l401 401l-401 402l92 92z" />
<glyph unicode="&#xd9;" horiz-adv-x="1196" d="M662 1579h-125l-328 410h178zM1094 1434v-947q0 -117 -32 -209t-82 -148t-116.5 -92t-132 -50.5t-133.5 -14.5q-86 0 -167 25t-157.5 79t-124 160.5t-47.5 249.5v947h129v-947q0 -195 96.5 -292t270.5 -97t269.5 97.5t95.5 291.5v947h131z" />
<glyph unicode="&#xdb;" horiz-adv-x="1196" d="M547 2071h103l307 -492h-135l-224 358l-223 -358h-135zM1094 1434v-947q0 -117 -32 -209t-82 -148t-116.5 -92t-132 -50.5t-133.5 -14.5q-86 0 -167 25t-157.5 79t-124 160.5t-47.5 249.5v947h129v-947q0 -195 96.5 -292t270.5 -97t269.5 97.5t95.5 291.5v947h131z" />
<glyph unicode="&#xe0;" horiz-adv-x="907" d="M531 1102h-125l-328 410h178zM467 967q172 0 255 -89.5t83 -314.5v-563h-100q-12 74 -19 145q-152 -156 -330 -155q-129 0 -206.5 65.5t-77.5 177.5q0 94 50 160t189.5 111t368.5 47v12q0 174 -53.5 236.5t-190.5 62.5q-57 0 -126.5 -13t-110.5 -28l-41 -14l-27 76 q158 84 336 84zM365 94q168 0 315 178v179q-240 -2 -361.5 -49.5t-121.5 -159.5q0 -76 47 -112t121 -36z" />
<glyph unicode="&#xe2;" horiz-adv-x="907" d="M416 1594h103l307 -492h-135l-224 358l-223 -358h-135zM467 967q172 0 255 -89.5t83 -314.5v-563h-100q-12 74 -19 145q-152 -156 -330 -155q-129 0 -206.5 65.5t-77.5 177.5q0 94 50 160t189.5 111t368.5 47v12q0 174 -53.5 236.5t-190.5 62.5q-57 0 -126.5 -13 t-110.5 -28l-41 -14l-27 76q158 84 336 84zM365 94q168 0 315 178v179q-240 -2 -361.5 -49.5t-121.5 -159.5q0 -76 47 -112t121 -36z" />
<glyph unicode="&#xe3;" horiz-adv-x="907" d="M443 1169q-139 61 -230 62q-100 0 -168 -82l-65 43q84 160 254 159q102 0 260 -67q139 -61 229 -62q100 0 168 82l66 -43q-84 -160 -254 -159q-102 -1 -260 67zM467 967q172 0 255 -89.5t83 -314.5v-563h-100q-12 74 -19 145q-152 -156 -330 -155q-129 0 -206.5 65.5 t-77.5 177.5q0 94 50 160t189.5 111t368.5 47v12q0 174 -53.5 236.5t-190.5 62.5q-57 0 -126.5 -13t-110.5 -28l-41 -14l-27 76q158 84 336 84zM365 94q168 0 315 178v179q-240 -2 -361.5 -49.5t-121.5 -159.5q0 -76 47 -112t121 -36z" />
<glyph unicode="&#xe5;" horiz-adv-x="907" d="M469 1952q147 0 253.5 -112.5t106.5 -313.5q0 -199 -108.5 -311.5t-258.5 -112.5q-147 0 -253.5 111.5t-106.5 312.5t108.5 313.5t258.5 112.5zM462 1215q233 0 233.5 311t-226.5 311q-104 0 -169 -75.5t-65 -235.5q0 -311 227 -311zM467 967q172 0 255 -89.5t83 -314.5 v-563h-100q-12 74 -19 145q-152 -156 -330 -155q-129 0 -206.5 65.5t-77.5 177.5q0 94 50 160t189.5 111t368.5 47v12q0 174 -53.5 236.5t-190.5 62.5q-57 0 -126.5 -13t-110.5 -28l-41 -14l-27 76q158 84 336 84zM365 94q168 0 315 178v179q-240 -2 -361.5 -49.5 t-121.5 -159.5q0 -76 47 -112t121 -36z" />
<glyph unicode="&#xe8;" horiz-adv-x="876" d="M539 1102h-125l-328 410h178zM512 86q162 0 260 47l27 -72q-125 -84 -310 -84q-193 0 -310.5 130.5t-117.5 359.5q0 231 124 371.5t292 140.5q96 0 166 -44t105.5 -121t51 -160t15.5 -179l-629 -10q0 -186 98.5 -282.5t227.5 -96.5zM477 877q-102 0 -185 -90.5 t-102 -241.5q166 27 500 35q-4 125 -59.5 211t-153.5 86z" />
<glyph unicode="&#xea;" horiz-adv-x="876" d="M426 1594h103l307 -492h-135l-224 358l-223 -358h-135zM512 86q162 0 260 47l27 -72q-125 -84 -310 -84q-193 0 -310.5 130.5t-117.5 359.5q0 231 124 371.5t292 140.5q96 0 166 -44t105.5 -121t51 -160t15.5 -179l-629 -10q0 -186 98.5 -282.5t227.5 -96.5zM477 877 q-102 0 -185 -90.5t-102 -241.5q166 27 500 35q-4 125 -59.5 211t-153.5 86z" />
<glyph unicode="&#xec;" horiz-adv-x="354" d="M240 1380h-125l-328 410h178zM115 954h125v-954h-125v954zM252 1186q0 -31 -21.5 -51.5t-52.5 -20.5t-53.5 20.5t-22.5 51.5q0 29 22.5 50t53.5 21t52.5 -21t21.5 -50z" />
<glyph unicode="&#xee;" horiz-adv-x="354" d="M127 1872h103l307 -492h-135l-224 358l-223 -358h-135zM115 954h125v-954h-125v954zM252 1186q0 -31 -21.5 -51.5t-52.5 -20.5t-53.5 20.5t-22.5 51.5q0 29 22.5 50t53.5 21t52.5 -21t21.5 -50z" />
<glyph unicode="&#xf1;" horiz-adv-x="937" d="M443 1169q-139 61 -230 62q-100 0 -168 -82l-65 43q84 160 254 159q102 0 260 -67q139 -61 229 -62q100 0 168 82l66 -43q-84 -160 -254 -159q-102 -1 -260 67zM524 979q311 0 312 -430v-549h-125v549q0 143 -48.5 234t-146.5 91q-141 0 -289 -192v-682h-125v954h101 q12 -72 18 -143q139 168 303 168z" />
<glyph unicode="&#xf2;" horiz-adv-x="976" d="M555 1102h-125l-328 410h178zM492 979q174 0 298.5 -133t124.5 -369q0 -233 -126.5 -366.5t-303.5 -133.5q-174 0 -299 132.5t-125 368t127.5 368.5t303.5 133zM485 86q135 0 218 99.5t83 291.5q0 190 -84 291.5t-210 101.5q-123 0 -212.5 -102t-89.5 -291 q0 -193 82 -292t213 -99z" />
<glyph unicode="&#xf4;" horiz-adv-x="976" d="M440 1594h103l307 -492h-135l-224 358l-223 -358h-135zM492 979q174 0 298.5 -133t124.5 -369q0 -233 -126.5 -366.5t-303.5 -133.5q-174 0 -299 132.5t-125 368t127.5 368.5t303.5 133zM485 86q135 0 218 99.5t83 291.5q0 190 -84 291.5t-210 101.5q-123 0 -212.5 -102 t-89.5 -291q0 -193 82 -292t213 -99z" />
<glyph unicode="&#xf5;" horiz-adv-x="976" d="M467 1169q-139 61 -230 62q-100 0 -168 -82l-65 43q84 160 254 159q102 0 260 -67q139 -61 229 -62q100 0 168 82l66 -43q-84 -160 -254 -159q-102 -1 -260 67zM492 979q174 0 298.5 -133t124.5 -369q0 -233 -126.5 -366.5t-303.5 -133.5q-174 0 -299 132.5t-125 368 t127.5 368.5t303.5 133zM485 86q135 0 218 99.5t83 291.5q0 190 -84 291.5t-210 101.5q-123 0 -212.5 -102t-89.5 -291q0 -193 82 -292t213 -99z" />
<glyph unicode="&#xf7;" horiz-adv-x="1187" d="M41 678h1106v-125h-1106v125zM692 1030q0 -39 -28.5 -66.5t-69.5 -27.5t-70.5 27.5t-29.5 66.5t29.5 67.5t70.5 28.5t69.5 -27.5t28.5 -68.5zM692 201q0 -41 -28.5 -69t-69.5 -28t-70.5 29t-29.5 68t29.5 66.5t70.5 27.5t69.5 -27.5t28.5 -66.5z" />
<glyph unicode="&#xf9;" horiz-adv-x="935" d="M531 1102h-125l-328 410h178zM412 -23q-309 0 -310 433v544h123v-544q0 -143 48.5 -235.5t146.5 -92.5q141 0 289 192v680h125v-954h-101q-10 74 -18 145q-139 -168 -303 -168z" />
<glyph unicode="&#xfb;" horiz-adv-x="935" d="M418 1594h103l307 -492h-135l-224 358l-223 -358h-135zM412 -23q-309 0 -310 433v544h123v-544q0 -143 48.5 -235.5t146.5 -92.5q141 0 289 192v680h125v-954h-101q-10 74 -18 145q-139 -168 -303 -168z" />
<glyph unicode="&#x152;" horiz-adv-x="2332" d="M2271 0h-844v1434h836v-125h-707v-506h603v-125h-603v-553h715v-125zM663.5 1456q260.5 0 420 -186.5t159.5 -555t-159.5 -555t-420 -186.5t-421 187.5t-160.5 554t160.5 554t421 187.5zM663.5 98q188.5 0 311.5 149.5t123 467t-123 467t-311.5 149.5t-311.5 -149.5 t-123 -467t123 -467t311.5 -149.5z" />
<glyph unicode="&#x153;" horiz-adv-x="1853" d="M1489 86q162 0 260 47l27 -72q-125 -84 -310 -84q-193 0 -310.5 130.5t-117.5 359.5q0 231 124 371.5t292 140.5q96 0 166 -44t105.5 -121t51 -160t15.5 -179l-629 -10q0 -186 98.5 -282.5t227.5 -96.5zM1454 877q-102 0 -185 -90.5t-102 -241.5q166 27 500 35 q-4 125 -59.5 211t-153.5 86zM492 979q174 0 298.5 -133t124.5 -369q0 -233 -126.5 -366.5t-303.5 -133.5q-174 0 -299 132.5t-125 368t127.5 368.5t303.5 133zM485 86q135 0 218 99.5t83 291.5q0 190 -84 291.5t-210 101.5q-123 0 -212.5 -102t-89.5 -291q0 -193 82 -292 t213 -99z" />
<glyph unicode="&#x2c6;" horiz-adv-x="716" d="M307 1434h103l307 -492h-135l-224 358l-223 -358h-135z" />
<glyph unicode="&#x2dc;" horiz-adv-x="512" d="M-24 190q-139 61 -230 62q-100 0 -168 -82l-65 43q84 160 254 159q102 0 260 -67q139 -61 229 -62q100 0 168 82l66 -43q-84 -160 -254 -159q-102 -1 -260 67z" />
<glyph unicode="&#x2000;" horiz-adv-x="1138" />
<glyph unicode="&#x2001;" horiz-adv-x="2277" />
<glyph unicode="&#x2002;" horiz-adv-x="1138" />
<glyph unicode="&#x2003;" horiz-adv-x="2277" />
<glyph unicode="&#x2004;" horiz-adv-x="757" />
<glyph unicode="&#x2005;" horiz-adv-x="569" />
<glyph unicode="&#x2006;" horiz-adv-x="378" />
<glyph unicode="&#x2007;" horiz-adv-x="378" />
<glyph unicode="&#x2008;" horiz-adv-x="284" />
<glyph unicode="&#x2009;" horiz-adv-x="454" />
<glyph unicode="&#x200a;" horiz-adv-x="124" />
<glyph unicode="&#x2010;" horiz-adv-x="696" d="M41 596h614v-125h-614v125z" />
<glyph unicode="&#x2011;" horiz-adv-x="696" d="M41 596h614v-125h-614v125z" />
<glyph unicode="&#x2012;" horiz-adv-x="696" d="M41 596h614v-125h-614v125z" />
<glyph unicode="&#x2013;" horiz-adv-x="1122" d="M41 596h1040v-125h-1040v125z" />
<glyph unicode="&#x2014;" horiz-adv-x="1372" d="M41 596h1290v-125h-1290v125z" />
<glyph unicode="&#x2018;" horiz-adv-x="327" d="M156 1434h69v-627h-123q3 459 54 627z" />
<glyph unicode="&#x2019;" d="M231 807h-79q-49 156 -50 627h129v-627z" />
<glyph unicode="&#x201a;" d="M231 -360h-79q-49 156 -50 626h129v-626z" />
<glyph unicode="&#x201c;" horiz-adv-x="571" d="M156 1434h69v-627h-123q3 459 54 627zM344 1434h125v-627h-125v627z" />
<glyph unicode="&#x201d;" horiz-adv-x="565" d="M231 807h-79q-49 156 -50 627h129v-627zM463 1434v-627h-119v627h119z" />
<glyph unicode="&#x201e;" horiz-adv-x="565" d="M231 -360h-79q-49 156 -50 626h129v-626zM463 266v-626h-119v626h119z" />
<glyph unicode="&#x2022;" horiz-adv-x="655" d="M553 716.5q0 -100.5 -62.5 -162.5t-163 -62t-163 62t-62.5 162.5t62.5 163t163 62.5t163 -62.5t62.5 -163z" />
<glyph unicode="&#x2026;" horiz-adv-x="1159" d="M270 74q0 -41 -29.5 -71t-74.5 -30q-43 0 -74 30t-31 71t31 70.5t74 29.5q45 0 74.5 -29.5t29.5 -70.5zM684 74q0 -41 -29.5 -71t-74.5 -30q-43 0 -74 30t-31 71t31 70.5t74 29.5q45 0 74.5 -29.5t29.5 -70.5zM1098 74q0 -41 -30 -71t-75 -30q-43 0 -73.5 30t-30.5 71 t30.5 70.5t73.5 29.5q45 0 75 -29.5t30 -70.5z" />
<glyph unicode="&#x202f;" horiz-adv-x="454" />
<glyph unicode="&#x2039;" horiz-adv-x="1044" d="M41 584l963 495v-135l-799 -412l799 -411v-135l-963 495v103z" />
<glyph unicode="&#x203a;" horiz-adv-x="1044" d="M41 1079l963 -495v-103l-963 -495v135l799 411l-799 412v135z" />
<glyph unicode="&#x205f;" horiz-adv-x="569" />
<glyph unicode="&#x20ac;" horiz-adv-x="1110" d="M723 98q176 4 291 92l55 -77q-4 -6 -12 -15.5t-41 -33t-72 -42t-108.5 -34t-149.5 -15.5q-195 0 -331 132.5t-167 429.5h-188l29 98h151v69v78h-180l29 99h159q18 162 69.5 279.5t123.5 180t143.5 90t149.5 27.5q104 0 188 -31.5t117 -64.5l31 -31l-49 -74 q-92 78 -242 78q-332 0 -385 -454h592l-29 -99h-569q-2 -25 -2 -78v-69h542l-28 -98h-506q25 -231 121 -334t268 -103z" />
<glyph unicode="&#x2122;" horiz-adv-x="1204" d="M856 1026l213 408h94v-605h-94v418l-172 -325h-78l-188 331v-424h-94v605h94zM0 1350v84h479v-84h-192v-521h-97v521h-190z" />
<glyph unicode="&#xe000;" horiz-adv-x="955" d="M0 955h955v-955h-955v955z" />
<glyph unicode="&#xfb01;" horiz-adv-x="972" d="M733 954h125v-954h-125v954zM870 1186q0 -31 -21.5 -51.5t-52.5 -20.5t-53.5 20.5t-22.5 51.5q0 29 22.5 50t53.5 21t52.5 -21t21.5 -50zM479 1354q-143 0 -143 -219v-181h244v-108q-139 0 -244 14v-860h-123v846h-172v108h172v181q0 172 65.5 246.5t194.5 74.5 q104 0 207 -76l-27 -71q-96 45 -174 45z" />
<glyph unicode="&#xfb02;" horiz-adv-x="995" d="M847 461q0 -141 3.5 -198.5t21.5 -119t61 -90.5l-14 -76q-47 6 -83 26t-56.5 58.5t-32.5 73.5t-17.5 97.5t-6.5 98.5t-1 105v25v973h125v-973zM479 1354q-143 0 -143 -219v-181h244v-108q-139 0 -244 14v-860h-123v846h-172v108h172v181q0 172 65.5 246.5t194.5 74.5 q104 0 207 -76l-27 -71q-96 45 -174 45z" />
<glyph unicode="&#xfb03;" horiz-adv-x="1591" d="M1352 954h125v-954h-125v954zM1489 1186q0 -31 -21.5 -51.5t-52.5 -20.5t-53.5 20.5t-22.5 51.5q0 29 22.5 50t53.5 21t52.5 -21t21.5 -50zM1097 1354q-143 0 -143 -219v-181h244v-108q-139 0 -244 14v-860h-123v846h-172v108h172v181q0 172 65.5 246.5t194.5 74.5 q104 0 207 -76l-27 -71q-96 45 -174 45zM479 1354q-143 0 -143 -219v-181h244v-108q-139 0 -244 14v-860h-123v846h-172v108h172v181q0 172 65.5 246.5t194.5 74.5q104 0 207 -76l-27 -71q-96 45 -174 45z" />
<glyph unicode="&#xfb04;" horiz-adv-x="1613" d="M1466 461q0 -141 3.5 -198.5t21.5 -119t61 -90.5l-14 -76q-47 6 -83 26t-56.5 58.5t-32.5 73.5t-17.5 97.5t-6.5 98.5t-1 105v25v973h125v-973zM1097 1354q-143 0 -143 -219v-181h244v-108q-139 0 -244 14v-860h-123v846h-172v108h172v181q0 172 65.5 246.5t194.5 74.5 q104 0 207 -76l-27 -71q-96 45 -174 45zM479 1354q-143 0 -143 -219v-181h244v-108q-139 0 -244 14v-860h-123v846h-172v108h172v181q0 172 65.5 246.5t194.5 74.5q104 0 207 -76l-27 -71q-96 45 -174 45z" />
</font>
</defs>
</svg>
